<?xml version="1.0" encoding="utf-8"?>
<!-- Generator: Adobe Illustrator 22.0.1, SVG Export Plug-In . SVG Version: 6.00 Build 0)  -->
<svg version="1.1" id="Layer_1" xmlns="http://www.w3.org/2000/svg" xmlns:xlink="http://www.w3.org/1999/xlink" x="0px" y="0px"
	 viewBox="0 0 32 32" style="enable-background:new 0 0 32 32;" xml:space="preserve">
<style type="text/css">
	.st0{fill:#0E7490;}
</style>
<path class="st0" d="M30.4,7.2C29.6,7.3,29,8,29,8.8v5c0,0.8-0.6,1.4-1.4,1.4c-0.8,0-1.4-0.6-1.4-1.4V6.4c0-0.8-0.6-1.5-1.4-1.6
	c-0.9-0.1-1.6,0.6-1.6,1.5v7.5c0,0.8-0.6,1.4-1.4,1.4c-0.8,0-1.4-0.6-1.4-1.4V9.1c0-0.8-0.6-1.5-1.4-1.6c-0.9-0.1-1.6,0.6-1.6,1.5
	v4.8c0,0.8-0.6,1.4-1.4,1.4c-0.2,0-0.4,0-0.6-0.1c-0.5-0.2-0.8-0.7-0.8-1.3V3.5c0-0.8-0.6-1.5-1.4-1.6c-0.9-0.1-1.6,0.6-1.6,1.5
	v10.4c0,0.8-0.6,1.4-1.4,1.4c-0.8,0-1.4-0.6-1.4-1.4V7.9c0-0.8-0.6-1.5-1.4-1.6C6.5,6.3,5.8,7,5.8,7.8v6c0,0.8-0.6,1.4-1.4,1.4
	c-0.8,0-1.4-0.6-1.4-1.4v-2.9c0-0.8-0.6-1.5-1.4-1.6C0.7,9.3,0,10,0,10.8v10.9c0,0.8,0.6,1.5,1.4,1.6C2.3,23.4,3,22.7,3,21.8V19
	c0-0.8,0.6-1.4,1.4-1.4c0.8,0,1.4,0.6,1.4,1.4v7.8c0,0.8,0.6,1.5,1.4,1.6c0.9,0.1,1.6-0.6,1.6-1.5V19c0-0.8,0.6-1.4,1.4-1.4
	c0.8,0,1.4,0.6,1.4,1.4v4.3c0,0.8,0.6,1.5,1.4,1.6c0.9,0.1,1.6-0.6,1.6-1.5V19c0-0.6,0.3-1.1,0.8-1.3c0.2-0.1,0.4-0.1,0.6-0.1
	c0.8,0,1.4,0.6,1.4,1.4v9.5c0,0.8,0.6,1.5,1.4,1.6c0.9,0.1,1.6-0.6,1.6-1.5V19c0-0.8,0.6-1.4,1.4-1.4c0.8,0,1.4,0.6,1.4,1.4v6.4
	c0,0.8,0.6,1.5,1.4,1.6c0.9,0.1,1.6-0.6,1.6-1.5V19c0-0.8,0.6-1.4,1.4-1.4c0.8,0,1.4,0.6,1.4,1.4v3.9c0,0.8,0.6,1.5,1.4,1.6
	c0.9,0.1,1.6-0.6,1.6-1.5V8.7C32,7.9,31.3,7.2,30.4,7.2z"/>
</svg>
