<svg width="113" height="114" viewBox="0 0 113 114" fill="none" xmlns="http://www.w3.org/2000/svg">
<path d="M61.3374 99.7691C61.3374 101.572 60.9823 103.357 60.2923 105.023C59.6024 106.689 58.5911 108.202 57.3161 109.477C56.0412 110.752 54.5277 111.764 52.862 112.454C51.1962 113.144 49.4109 113.499 47.6079 113.499C45.8049 113.499 44.0196 113.144 42.3538 112.454C40.6881 111.764 39.1746 110.752 37.8997 109.477C36.6248 108.202 35.6134 106.689 34.9235 105.023C34.2335 103.357 33.8784 101.572 33.8784 99.7691H43.0036C43.0036 100.374 43.1227 100.972 43.3541 101.531C43.5855 102.09 43.9247 102.597 44.3522 103.025C44.7797 103.452 45.2873 103.792 45.8459 104.023C46.4045 104.254 47.0033 104.373 47.6079 104.373C48.2125 104.373 48.8113 104.254 49.3699 104.023C49.9285 103.792 50.4361 103.452 50.8636 103.025C51.2912 102.597 51.6303 102.09 51.8617 101.531C52.0931 100.972 52.2122 100.374 52.2122 99.7691H61.3374Z" fill="black"/>
<path d="M79.6435 13.7307C79.6435 11.9277 79.2883 10.1424 78.5984 8.47667C77.9084 6.81093 76.8971 5.2974 75.6222 4.02249C74.3473 2.74759 72.8337 1.73628 71.168 1.04631C69.5023 0.356334 67.7169 0.00120902 65.9139 0.00120926C64.111 0.0012095 62.3256 0.356334 60.6599 1.04631C58.9941 1.73628 57.4806 2.74759 56.2057 4.0225C54.9308 5.2974 53.9195 6.81093 53.2295 8.47668C52.5395 10.1424 52.1844 11.9278 52.1844 13.7307L61.3097 13.7307C61.3097 13.1261 61.4288 12.5274 61.6602 11.9688C61.8915 11.4101 62.2307 10.9026 62.6582 10.475C63.0858 10.0475 63.5933 9.70833 64.152 9.47695C64.7106 9.24556 65.3093 9.12647 65.9139 9.12647C66.5186 9.12647 67.1173 9.24556 67.6759 9.47695C68.2345 9.70833 68.7421 10.0475 69.1696 10.475C69.5972 10.9026 69.9363 11.4101 70.1677 11.9688C70.3991 12.5274 70.5182 13.1261 70.5182 13.7307L79.6435 13.7307Z" fill="black"/>
<path d="M52.1844 12.8154H61.3374V100.684H52.1844V12.8154Z" fill="black"/>
<path d="M70.4904 79.6325C70.4904 82.16 72.5394 84.209 75.067 84.209C77.5945 84.209 79.6435 82.16 79.6435 79.6325L79.6435 13.7307C79.6435 11.2032 77.5945 9.15423 75.067 9.15423C72.5394 9.15423 70.4904 11.2032 70.4904 13.7307L70.4904 79.6325Z" fill="black"/>
<path d="M86.9659 70.4795C86.9659 73.007 89.0149 75.056 91.5424 75.056C94.0699 75.056 96.1189 73.007 96.1189 70.4795V39.3592C96.1189 36.8317 94.0699 34.7827 91.5424 34.7827C89.0149 34.7827 86.9659 36.8317 86.9659 39.3592V70.4795Z" fill="black"/>
<path d="M26.556 70.4795C26.556 73.007 24.507 75.056 21.9795 75.056C19.4519 75.056 17.4029 73.007 17.4029 70.4795L17.4029 39.3592C17.4029 36.8317 19.4519 34.7827 21.9795 34.7827C24.507 34.7827 26.556 36.8317 26.556 39.3592L26.556 70.4795Z" fill="black"/>
<path d="M103.441 61.3264C103.441 63.854 105.49 65.9029 108.018 65.9029C110.545 65.9029 112.594 63.854 112.594 61.3264V48.5122C112.594 45.9847 110.545 43.9357 108.018 43.9357C105.49 43.9357 103.441 45.9847 103.441 48.5122V61.3264Z" fill="black"/>
<path d="M10.0805 61.3264C10.0805 63.854 8.03156 65.9029 5.50402 65.9029C2.97649 65.9029 0.927512 63.854 0.927512 61.3264L0.927513 48.5122C0.927514 45.9847 2.97649 43.9357 5.50402 43.9357C8.03156 43.9357 10.0805 45.9847 10.0805 48.5122L10.0805 61.3264Z" fill="black"/>
<path d="M33.8784 30.2062C33.8784 27.6786 35.9274 25.6297 38.4549 25.6297C40.9824 25.6297 43.0314 27.6786 43.0314 30.2062V99.7691C43.0314 102.297 40.9824 104.346 38.4549 104.346C35.9274 104.346 33.8784 102.297 33.8784 99.7691V30.2062Z" fill="black"/>
</svg>
