<svg width="242" height="246" viewBox="0 0 242 246" fill="none" xmlns="http://www.w3.org/2000/svg">
<path d="M130.883 215.7C130.883 219.585 130.118 223.432 128.631 227.021C127.144 230.611 124.965 233.872 122.218 236.62C119.471 239.367 116.209 241.546 112.62 243.033C109.03 244.52 105.183 245.285 101.298 245.285C97.4129 245.285 93.5658 244.52 89.9764 243.033C86.387 241.546 83.1255 239.367 80.3783 236.62C77.6311 233.872 75.4519 230.611 73.9651 227.021C72.4783 223.432 71.7131 219.585 71.7131 215.7H91.3766C91.3766 217.003 91.6332 218.293 92.1318 219.497C92.6304 220.7 93.3612 221.794 94.2825 222.715C95.2038 223.637 96.2976 224.367 97.5013 224.866C98.705 225.365 99.9952 225.621 101.298 225.621C102.601 225.621 103.891 225.365 105.095 224.866C106.299 224.367 107.392 223.637 108.314 222.715C109.235 221.794 109.966 220.7 110.464 219.497C110.963 218.293 111.22 217.003 111.22 215.7H130.883Z" fill="#ECEFEF"/>
<path d="M170.33 30.3002C170.33 26.4151 169.565 22.568 168.078 18.9785C166.591 15.3891 164.412 12.1277 161.665 9.38046C158.917 6.63324 155.656 4.45402 152.066 2.96724C148.477 1.48045 144.63 0.715209 140.745 0.71521C136.86 0.71521 133.013 1.48045 129.423 2.96724C125.834 4.45403 122.572 6.63324 119.825 9.38047C117.078 12.1277 114.899 15.3891 113.412 18.9785C111.925 22.568 111.16 26.4151 111.16 30.3002L130.823 30.3002C130.823 28.9973 131.08 27.7072 131.579 26.5035C132.077 25.2997 132.808 24.206 133.729 23.2847C134.651 22.3634 135.744 21.6326 136.948 21.134C138.152 20.6354 139.442 20.3787 140.745 20.3787C142.048 20.3787 143.338 20.6354 144.542 21.134C145.745 21.6326 146.839 22.3634 147.76 23.2847C148.682 24.206 149.412 25.2997 149.911 26.5035C150.41 27.7072 150.666 28.9973 150.666 30.3002L170.33 30.3002Z" fill="#ECEFEF"/>
<path d="M111.16 28.3279H130.883V217.672H111.16V28.3279Z" fill="#ECEFEF"/>
<path d="M150.606 172.308C150.606 177.755 155.022 182.17 160.468 182.17C165.915 182.17 170.33 177.755 170.33 172.308L170.33 30.3002C170.33 24.8538 165.915 20.4386 160.468 20.4386C155.022 20.4386 150.606 24.8538 150.606 30.3002L150.606 172.308Z" fill="#ECEFEF"/>
<path d="M186.109 152.585C186.109 158.031 190.524 162.447 195.97 162.447C201.417 162.447 205.832 158.031 205.832 152.585L205.832 85.5256C205.832 80.0792 201.417 75.664 195.97 75.664C190.524 75.664 186.109 80.0792 186.109 85.5256V152.585Z" fill="#ECEFEF"/>
<path d="M55.9344 152.585C55.9344 158.031 51.5192 162.447 46.0727 162.447C40.6262 162.447 36.211 158.031 36.211 152.585L36.211 85.5256C36.211 80.0792 40.6263 75.664 46.0727 75.664C51.5192 75.664 55.9344 80.0792 55.9344 85.5256L55.9344 152.585Z" fill="#ECEFEF"/>
<path d="M221.611 132.862C221.611 138.308 226.026 142.723 231.472 142.723C236.919 142.723 241.334 138.308 241.334 132.862V105.249C241.334 99.8025 236.919 95.3873 231.472 95.3873C226.026 95.3873 221.611 99.8025 221.611 105.249V132.862Z" fill="#ECEFEF"/>
<path d="M20.4323 132.862C20.4323 138.308 16.0171 142.723 10.5707 142.723C5.12421 142.723 0.708984 138.308 0.708984 132.862L0.708987 105.249C0.708987 99.8025 5.12421 95.3873 10.5707 95.3873C16.0171 95.3873 20.4323 99.8025 20.4323 105.249L20.4323 132.862Z" fill="#ECEFEF"/>
<path d="M71.7131 65.8023C71.7131 60.3558 76.1283 55.9406 81.5747 55.9406C87.0212 55.9406 91.4364 60.3558 91.4364 65.8023V215.7C91.4364 221.146 87.0212 225.561 81.5747 225.561C76.1283 225.561 71.7131 221.146 71.7131 215.7V65.8023Z" fill="#ECEFEF"/>
</svg>
