<svg xmlns="http://www.w3.org/2000/svg" width="37" height="38" viewBox="0 0 37 38" fill="none">
  <path d="M19.7892 32.6821C19.7892 33.2728 19.6729 33.8576 19.4468 34.4033C19.2208 34.9489 18.8895 35.4448 18.4719 35.8624C18.0543 36.28 17.5585 36.6113 17.0128 36.8373C16.4671 37.0634 15.8823 37.1797 15.2916 37.1797C14.701 37.1797 14.1162 37.0634 13.5705 36.8373C13.0248 36.6113 12.529 36.28 12.1114 35.8624C11.6938 35.4448 11.3625 34.9489 11.1365 34.4033C10.9104 33.8576 10.7941 33.2728 10.7941 32.6821H13.7834C13.7834 32.8802 13.8224 33.0763 13.8982 33.2593C13.974 33.4423 14.0851 33.6086 14.2251 33.7487C14.3652 33.8887 14.5315 33.9998 14.7145 34.0756C14.8974 34.1514 15.0936 34.1904 15.2916 34.1904C15.4897 34.1904 15.6858 34.1514 15.8688 34.0756C16.0518 33.9998 16.2181 33.8887 16.3582 33.7487C16.4982 33.6086 16.6093 33.4423 16.6851 33.2593C16.7609 33.0763 16.7999 32.8802 16.7999 32.6821H19.7892Z" fill="#ECEFEF"/>
  <path d="M25.7859 4.49754C25.7859 3.90692 25.6696 3.32207 25.4436 2.77641C25.2175 2.23074 24.8862 1.73493 24.4686 1.3173C24.051 0.899664 23.5552 0.568377 23.0095 0.342355C22.4638 0.116332 21.879 -7.74512e-08 21.2884 0C20.6977 7.74512e-08 20.1129 0.116333 19.5672 0.342355C19.0216 0.568378 18.5258 0.899665 18.1081 1.3173C17.6905 1.73494 17.3592 2.23074 17.1332 2.77641C16.9072 3.32208 16.7908 3.90692 16.7908 4.49754L19.7801 4.49754C19.7801 4.29947 19.8191 4.10334 19.8949 3.92035C19.9707 3.73736 20.0818 3.57109 20.2219 3.43103C20.3619 3.29098 20.5282 3.17988 20.7112 3.10408C20.8942 3.02828 21.0903 2.98927 21.2884 2.98927C21.4864 2.98927 21.6826 3.02828 21.8656 3.10408C22.0486 3.17988 22.2148 3.29098 22.3549 3.43103C22.4949 3.57109 22.606 3.73736 22.6818 3.92035C22.7576 4.10334 22.7966 4.29947 22.7966 4.49754L25.7859 4.49754Z" fill="#ECEFEF"/>
  <path d="M16.7908 4.19771H19.7892V32.982H16.7908V4.19771Z" fill="#ECEFEF"/>
  <path d="M22.7876 26.0857C22.7876 26.9137 23.4588 27.5849 24.2867 27.5849C25.1147 27.5849 25.7859 26.9137 25.7859 26.0857L25.7859 4.49754C25.7859 3.66957 25.1147 2.99836 24.2867 2.99836C23.4588 2.99836 22.7875 3.66957 22.7875 4.49754L22.7876 26.0857Z" fill="#ECEFEF"/>
  <path d="M28.1846 23.0874C28.1846 23.9154 28.8558 24.5866 29.6838 24.5866C30.5118 24.5866 31.183 23.9154 31.183 23.0874L31.183 12.893C31.183 12.065 30.5118 11.3938 29.6838 11.3938C28.8558 11.3938 28.1846 12.065 28.1846 12.893V23.0874Z" fill="#ECEFEF"/>
  <path d="M8.39541 23.0874C8.39541 23.9154 7.72421 24.5866 6.89623 24.5866C6.06826 24.5866 5.39705 23.9154 5.39705 23.0874L5.39705 12.893C5.39705 12.065 6.06826 11.3938 6.89623 11.3938C7.72421 11.3938 8.39542 12.065 8.39542 12.893L8.39541 23.0874Z" fill="#ECEFEF"/>
  <path d="M33.5817 20.089C33.5817 20.917 34.2529 21.5882 35.0808 21.5882C35.9088 21.5882 36.58 20.917 36.58 20.089V15.8913C36.58 15.0633 35.9088 14.3921 35.0808 14.3921C34.2529 14.3921 33.5817 15.0633 33.5817 15.8913V20.089Z" fill="#ECEFEF"/>
  <path d="M2.99836 20.089C2.99836 20.917 2.32716 21.5882 1.49918 21.5882C0.671206 21.5882 -7.23839e-08 20.917 0 20.089L3.66975e-07 15.8913C4.39359e-07 15.0633 0.671207 14.3921 1.49918 14.3921C2.32716 14.3921 2.99836 15.0633 2.99836 15.8913L2.99836 20.089Z" fill="#ECEFEF"/>
  <path d="M10.7941 9.8946C10.7941 9.06662 11.4653 8.39541 12.2933 8.39541C13.1213 8.39541 13.7925 9.06662 13.7925 9.89459V32.6821C13.7925 33.5101 13.1213 34.1813 12.2933 34.1813C11.4653 34.1813 10.7941 33.5101 10.7941 32.6821V9.8946Z" fill="#ECEFEF"/>
</svg>