<svg width="16.000000" height="16.000000" viewBox="0 0 16 16" fill="none" xmlns="http://www.w3.org/2000/svg" xmlns:xlink="http://www.w3.org/1999/xlink">
	<desc>
			Created with Pixso.
	</desc>
	<defs/>
	<path id="Vector" d="M8 14.73L5.72 16L4.48 13.69L1.89 13.51L2.08 10.89L0 9.32L1.56 7.23L0.64 4.77L3.08 3.86L3.63 1.29L6.16 1.85L8 0L9.83 1.85L12.36 1.29L12.91 3.86L15.35 4.77L14.43 7.23L16 9.32L13.91 10.89L14.1 13.51L11.51 13.69L10.27 16L8 14.73Z" fill="#2E77D0" fill-opacity="1.000000" fill-rule="nonzero"/>
	<path id="Vector" d="M11.27 5.04L6.8 10.33L4.91 8.1L4.58 8.49L6.8 11.12L11.65 5.37L11.27 5.04Z" fill="#FFFFFF" fill-opacity="1.000000" fill-rule="nonzero"/>
</svg>
