<svg width="148.309570" height="37.179688" viewBox="0 0 148.31 37.1797" fill="none" xmlns="http://www.w3.org/2000/svg" xmlns:xlink="http://www.w3.org/1999/xlink">
	<desc>
			Created with Pixso.
	</desc>
	<defs/>
	<path d="M25.44 2.77C25.66 3.32 25.78 3.9 25.78 4.49L25.78 26.08C25.78 26.91 25.11 27.58 24.28 27.58C23.45 27.58 22.78 26.91 22.78 26.08L22.78 4.49C22.78 4.45 22.78 4.41 22.79 4.38C22.77 4.22 22.74 4.06 22.68 3.92C22.6 3.73 22.49 3.57 22.35 3.43C22.21 3.29 22.04 3.17 21.86 3.1C21.68 3.02 21.48 2.98 21.28 2.98C21.08 2.98 20.89 3.02 20.71 3.1C20.52 3.17 20.36 3.29 20.22 3.43C20.08 3.57 19.97 3.73 19.89 3.92C19.83 4.05 19.8 4.19 19.78 4.33L19.78 32.98L19.77 32.98C19.74 33.47 19.63 33.95 19.44 34.4C19.22 34.94 18.88 35.44 18.47 35.86C18.05 36.27 17.55 36.61 17.01 36.83C16.46 37.06 15.88 37.17 15.29 37.17C14.7 37.17 14.11 37.06 13.57 36.83C13.02 36.61 12.52 36.27 12.11 35.86C11.69 35.44 11.36 34.94 11.13 34.4C10.91 33.85 10.79 33.27 10.79 32.68L10.79 9.89C10.79 9.06 11.46 8.39 12.29 8.39C13.12 8.39 13.79 9.06 13.79 9.89L13.79 32.68C13.79 32.72 13.79 32.76 13.78 32.79C13.79 32.95 13.83 33.11 13.89 33.25C13.97 33.44 14.08 33.6 14.22 33.74C14.36 33.88 14.53 34 14.71 34.07C14.89 34.15 15.09 34.19 15.29 34.19C15.48 34.19 15.68 34.15 15.86 34.07C16.05 34 16.21 33.88 16.35 33.74C16.49 33.6 16.6 33.44 16.68 33.25C16.73 33.12 16.77 32.98 16.79 32.84L16.79 4.19L16.8 4.19C16.83 3.7 16.94 3.22 17.13 2.77C17.35 2.23 17.69 1.73 18.1 1.31C18.52 0.89 19.02 0.56 19.56 0.34C20.11 0.11 20.69 0 21.28 0C21.87 0 22.46 0.11 23 0.34C23.55 0.56 24.05 0.89 24.46 1.31C24.88 1.73 25.21 2.23 25.44 2.77ZM8.39 23.08C8.39 23.91 7.72 24.58 6.89 24.58C6.06 24.58 5.39 23.91 5.39 23.08L5.39 12.89C5.39 12.06 6.06 11.39 6.89 11.39C7.72 11.39 8.39 12.06 8.39 12.89L8.39 23.08ZM29.68 24.58C28.85 24.58 28.18 23.91 28.18 23.08L28.18 12.89C28.18 12.06 28.85 11.39 29.68 11.39C30.51 11.39 31.18 12.06 31.18 12.89L31.18 23.08C31.18 23.91 30.51 24.58 29.68 24.58ZM2.99 20.08C2.99 20.91 2.32 21.58 1.49 21.58C0.67 21.58 0 20.91 0 20.08L0 15.89C0 15.06 0.67 14.39 1.49 14.39C2.32 14.39 2.99 15.06 2.99 15.89L2.99 20.08ZM33.58 20.08L33.58 15.89C33.58 15.06 34.25 14.39 35.08 14.39C35.9 14.39 36.58 15.06 36.58 15.89L36.58 20.08C36.58 20.91 35.9 21.58 35.08 21.58C34.25 21.58 33.58 20.91 33.58 20.08Z" fill="#000000" fill-opacity="1.000000" fill-rule="evenodd"/>
	<path d="M138.95 27.19L138.95 14.92L142.4 14.92C142.53 15.54 142.6 16.33 142.6 17.27C143.04 16.44 143.62 15.79 144.34 15.32C145.06 14.83 145.86 14.58 146.76 14.58C147.33 14.58 147.85 14.66 148.31 14.83L148.25 18.03C147.77 17.76 147.19 17.62 146.54 17.62C144.67 17.62 143.36 18.63 142.62 20.65L142.62 27.19L138.95 27.19Z" fill="#000000" fill-opacity="1.000000" fill-rule="nonzero"/>
	<path d="M126.4 16.32C127.64 15.16 129.27 14.58 131.3 14.58C133.34 14.58 134.94 15.16 136.12 16.32C137.31 17.48 137.91 18.98 137.91 20.82C137.91 21.17 137.86 21.54 137.78 21.95L128.06 21.95C128.18 22.91 128.64 23.66 129.43 24.2C130.25 24.73 131.29 24.99 132.54 24.99C134.18 24.99 135.6 24.6 136.83 23.84L137.02 26.38C135.7 27.13 134 27.51 131.91 27.51C129.61 27.51 127.8 26.93 126.5 25.77C125.19 24.6 124.54 23.01 124.54 21.02C124.54 19.05 125.16 17.48 126.4 16.32ZM128.04 20.34L134.55 20.34C134.53 19.34 134.22 18.54 133.6 17.94C132.99 17.33 132.23 17.03 131.32 17.03C130.44 17.03 129.7 17.32 129.09 17.91C128.49 18.48 128.14 19.29 128.04 20.34Z" fill="#000000" fill-opacity="1.000000" fill-rule="nonzero"/>
	<path d="M110.29 12.04C112.1 10.5 114.53 9.73 117.56 9.73C119.75 9.73 121.64 10.05 123.22 10.69L122.68 13.92C121.29 13.28 119.77 12.97 118.13 12.97C116.18 12.97 114.61 13.48 113.4 14.51C112.19 15.52 111.59 16.92 111.59 18.7C111.59 20.46 112.19 21.84 113.4 22.83C114.61 23.81 116.21 24.3 118.2 24.3C120.16 24.3 121.95 23.84 123.59 22.93L123.73 26.31C122.07 27.12 119.99 27.53 117.49 27.53C114.47 27.53 112.06 26.77 110.24 25.26C108.45 23.74 107.55 21.54 107.55 18.67C107.55 15.78 108.46 13.57 110.29 12.04Z" fill="#000000" fill-opacity="1.000000" fill-rule="nonzero"/>
	<path d="M98.54 9.64L98.54 19.94L102.97 14.92L107.06 14.92L102.01 20.56L107.84 27.19L103.75 27.19L98.54 21.34L98.54 27.19L94.86 27.19L94.86 9.64L98.54 9.64Z" fill="#000000" fill-opacity="1.000000" fill-rule="nonzero"/>
	<path d="M84.01 16.34C85.32 15.17 87.04 14.58 89.2 14.58C90.85 14.58 92.24 14.8 93.36 15.24L93.02 17.96C92.07 17.49 91.04 17.25 89.91 17.25C88.64 17.25 87.61 17.59 86.83 18.28C86.04 18.96 85.65 19.87 85.65 21C85.65 22.14 86.06 23.07 86.87 23.79C87.69 24.49 88.76 24.84 90.08 24.84C91.34 24.84 92.54 24.53 93.68 23.91L93.75 26.7C92.45 27.26 90.94 27.53 89.22 27.53C87.05 27.53 85.31 26.94 83.99 25.75C82.68 24.54 82.03 22.97 82.03 21.05C82.03 19.1 82.69 17.54 84.01 16.34Z" fill="#000000" fill-opacity="1.000000" fill-rule="nonzero"/>
	<path d="M69.16 20.43C70.06 19.7 71.28 19.33 72.81 19.33C74.57 19.33 75.97 19.79 77 20.7L77 19.58C77 18.96 76.68 18.39 76.04 17.89C75.42 17.36 74.49 17.1 73.25 17.1C71.83 17.1 70.45 17.41 69.09 18.01L69.04 15.49C70.71 14.88 72.35 14.58 73.96 14.58C75.94 14.58 77.54 14.96 78.79 15.71C80.03 16.46 80.65 17.63 80.65 19.23L80.65 27.19L77.49 27.19C77.28 26.64 77.14 26.18 77.07 25.82C76.14 26.96 74.71 27.53 72.79 27.53C71.27 27.53 70.06 27.17 69.16 26.43C68.27 25.68 67.82 24.68 67.82 23.42C67.82 22.16 68.27 21.17 69.16 20.43ZM72.2 24.84C72.67 25.23 73.32 25.43 74.13 25.43C75.49 25.43 76.44 24.94 77 23.96L77 22.29C76.36 21.58 75.42 21.22 74.18 21.22C73.32 21.22 72.65 21.4 72.17 21.78C71.72 22.14 71.49 22.64 71.49 23.3C71.49 23.95 71.73 24.46 72.2 24.84Z" fill="#000000" fill-opacity="1.000000" fill-rule="nonzero"/>
	<path d="M58.14 27.19L58.14 14.92L61.6 14.92C61.73 15.54 61.79 16.33 61.79 17.27C62.23 16.44 62.81 15.79 63.53 15.32C64.25 14.83 65.06 14.58 65.95 14.58C66.53 14.58 67.04 14.66 67.5 14.83L67.45 18.03C66.96 17.76 66.39 17.62 65.73 17.62C63.86 17.62 62.55 18.63 61.82 20.65L61.82 27.19L58.14 27.19Z" fill="#000000" fill-opacity="1.000000" fill-rule="nonzero"/>
	<path d="M43.13 10.21L58.06 10.21L58.06 13.36L52.6 13.36L52.6 27.34L48.56 27.34L48.56 13.36L43.13 13.36L43.13 10.21Z" fill="#000000" fill-opacity="1.000000" fill-rule="nonzero"/>
</svg>
